<mxfile host="app.diagrams.net" modified="2021-11-02T07:31:03.392Z" agent="5.0 (Macintosh; Intel Mac OS X 10_15_7) AppleWebKit/537.36 (KHTML, like Gecko) Chrome/95.0.4638.54 Safari/537.36" etag="KAPaJs0mokU4cyZtYJ0d" version="15.6.5" type="github">
  <diagram id="euzZqHydwFeH9KyfkGWj" name="Page-1">
    <mxGraphModel dx="946" dy="589" grid="1" gridSize="10" guides="1" tooltips="1" connect="1" arrows="1" fold="1" page="1" pageScale="1" pageWidth="827" pageHeight="1169" math="0" shadow="0">
      <root>
        <mxCell id="0" />
        <mxCell id="1" parent="0" />
        <mxCell id="4h6Gc5Q3ZyhKogQl8zRI-5" style="edgeStyle=orthogonalEdgeStyle;rounded=0;orthogonalLoop=1;jettySize=auto;html=1;labelBackgroundColor=default;fontColor=default;strokeColor=#33001A;" edge="1" parent="1" source="4h6Gc5Q3ZyhKogQl8zRI-2" target="4h6Gc5Q3ZyhKogQl8zRI-4">
          <mxGeometry relative="1" as="geometry" />
        </mxCell>
        <mxCell id="4h6Gc5Q3ZyhKogQl8zRI-2" value="" style="ellipse;html=1;shape=startState;fillColor=#000000;strokeColor=#000000;fontColor=default;" vertex="1" parent="1">
          <mxGeometry x="330" y="80" width="30" height="30" as="geometry" />
        </mxCell>
        <mxCell id="4h6Gc5Q3ZyhKogQl8zRI-8" style="edgeStyle=orthogonalEdgeStyle;rounded=0;orthogonalLoop=1;jettySize=auto;html=1;labelBackgroundColor=default;fontSize=16;fontColor=default;strokeColor=#33001A;" edge="1" parent="1" source="4h6Gc5Q3ZyhKogQl8zRI-4" target="4h6Gc5Q3ZyhKogQl8zRI-7">
          <mxGeometry relative="1" as="geometry" />
        </mxCell>
        <mxCell id="4h6Gc5Q3ZyhKogQl8zRI-4" value="&lt;font style=&quot;font-size: 16px&quot;&gt;点击 icon&lt;/font&gt;" style="rounded=1;whiteSpace=wrap;html=1;fontColor=default;strokeColor=#000000;fillColor=default;" vertex="1" parent="1">
          <mxGeometry x="285" y="170" width="120" height="60" as="geometry" />
        </mxCell>
        <mxCell id="4h6Gc5Q3ZyhKogQl8zRI-10" style="edgeStyle=orthogonalEdgeStyle;rounded=0;orthogonalLoop=1;jettySize=auto;html=1;entryX=0.5;entryY=0;entryDx=0;entryDy=0;labelBackgroundColor=default;fontSize=16;fontColor=default;strokeColor=#33001A;" edge="1" parent="1" source="4h6Gc5Q3ZyhKogQl8zRI-7" target="4h6Gc5Q3ZyhKogQl8zRI-9">
          <mxGeometry relative="1" as="geometry" />
        </mxCell>
        <mxCell id="4h6Gc5Q3ZyhKogQl8zRI-7" value="&lt;font style=&quot;font-size: 16px&quot;&gt;展示启动页&lt;/font&gt;" style="rounded=1;whiteSpace=wrap;html=1;fontColor=default;strokeColor=#000000;fillColor=default;" vertex="1" parent="1">
          <mxGeometry x="285" y="280" width="120" height="60" as="geometry" />
        </mxCell>
        <mxCell id="4h6Gc5Q3ZyhKogQl8zRI-13" style="edgeStyle=orthogonalEdgeStyle;rounded=0;orthogonalLoop=1;jettySize=auto;html=1;exitX=1;exitY=0.5;exitDx=0;exitDy=0;labelBackgroundColor=default;fontSize=16;fontColor=default;strokeColor=#33001A;" edge="1" parent="1" source="4h6Gc5Q3ZyhKogQl8zRI-9" target="4h6Gc5Q3ZyhKogQl8zRI-12">
          <mxGeometry relative="1" as="geometry" />
        </mxCell>
        <mxCell id="4h6Gc5Q3ZyhKogQl8zRI-17" style="edgeStyle=orthogonalEdgeStyle;rounded=0;orthogonalLoop=1;jettySize=auto;html=1;labelBackgroundColor=default;fontSize=16;fontColor=default;strokeColor=#33001A;" edge="1" parent="1" source="4h6Gc5Q3ZyhKogQl8zRI-9" target="4h6Gc5Q3ZyhKogQl8zRI-16">
          <mxGeometry relative="1" as="geometry" />
        </mxCell>
        <mxCell id="4h6Gc5Q3ZyhKogQl8zRI-9" value="" style="rhombus;whiteSpace=wrap;html=1;fontSize=16;fontColor=default;strokeColor=#000000;fillColor=default;" vertex="1" parent="1">
          <mxGeometry x="315" y="400" width="60" height="60" as="geometry" />
        </mxCell>
        <mxCell id="4h6Gc5Q3ZyhKogQl8zRI-11" value="已登录？" style="text;html=1;align=center;verticalAlign=middle;resizable=0;points=[];autosize=1;strokeColor=none;fillColor=none;fontSize=16;fontColor=default;" vertex="1" parent="1">
          <mxGeometry x="230" y="420" width="80" height="20" as="geometry" />
        </mxCell>
        <mxCell id="4h6Gc5Q3ZyhKogQl8zRI-12" value="登录页" style="rounded=1;whiteSpace=wrap;html=1;fontSize=16;fontColor=default;strokeColor=#000000;fillColor=default;" vertex="1" parent="1">
          <mxGeometry x="490" y="400" width="120" height="60" as="geometry" />
        </mxCell>
        <mxCell id="4h6Gc5Q3ZyhKogQl8zRI-14" value="否" style="text;html=1;align=center;verticalAlign=middle;resizable=0;points=[];autosize=1;strokeColor=none;fillColor=none;fontSize=16;fontColor=default;" vertex="1" parent="1">
          <mxGeometry x="375" y="410" width="30" height="20" as="geometry" />
        </mxCell>
        <mxCell id="4h6Gc5Q3ZyhKogQl8zRI-21" style="edgeStyle=orthogonalEdgeStyle;rounded=0;orthogonalLoop=1;jettySize=auto;html=1;labelBackgroundColor=default;fontSize=16;fontColor=default;strokeColor=#33001A;entryX=0.5;entryY=0;entryDx=0;entryDy=0;" edge="1" parent="1" source="4h6Gc5Q3ZyhKogQl8zRI-16" target="4h6Gc5Q3ZyhKogQl8zRI-32">
          <mxGeometry relative="1" as="geometry">
            <mxPoint x="500" y="570" as="targetPoint" />
          </mxGeometry>
        </mxCell>
        <mxCell id="4h6Gc5Q3ZyhKogQl8zRI-27" style="edgeStyle=orthogonalEdgeStyle;rounded=0;orthogonalLoop=1;jettySize=auto;html=1;entryX=0.5;entryY=0;entryDx=0;entryDy=0;labelBackgroundColor=default;fontSize=16;fontColor=default;strokeColor=#33001A;" edge="1" parent="1" source="4h6Gc5Q3ZyhKogQl8zRI-16" target="4h6Gc5Q3ZyhKogQl8zRI-26">
          <mxGeometry relative="1" as="geometry" />
        </mxCell>
        <mxCell id="4h6Gc5Q3ZyhKogQl8zRI-16" value="" style="rhombus;whiteSpace=wrap;html=1;fontSize=16;fontColor=default;strokeColor=#000000;fillColor=default;" vertex="1" parent="1">
          <mxGeometry x="315" y="540" width="60" height="60" as="geometry" />
        </mxCell>
        <mxCell id="4h6Gc5Q3ZyhKogQl8zRI-18" value="是" style="text;html=1;align=center;verticalAlign=middle;resizable=0;points=[];autosize=1;strokeColor=none;fillColor=none;fontSize=16;fontColor=default;" vertex="1" parent="1">
          <mxGeometry x="310" y="460" width="30" height="20" as="geometry" />
        </mxCell>
        <mxCell id="4h6Gc5Q3ZyhKogQl8zRI-19" value="已展示过广告？" style="text;html=1;align=center;verticalAlign=middle;resizable=0;points=[];autosize=1;strokeColor=none;fillColor=none;fontSize=16;fontColor=default;" vertex="1" parent="1">
          <mxGeometry x="170" y="560" width="130" height="20" as="geometry" />
        </mxCell>
        <mxCell id="4h6Gc5Q3ZyhKogQl8zRI-22" value="是" style="text;html=1;align=center;verticalAlign=middle;resizable=0;points=[];autosize=1;strokeColor=none;fillColor=none;fontSize=16;fontColor=default;" vertex="1" parent="1">
          <mxGeometry x="375" y="550" width="30" height="20" as="geometry" />
        </mxCell>
        <mxCell id="4h6Gc5Q3ZyhKogQl8zRI-30" style="edgeStyle=orthogonalEdgeStyle;rounded=0;orthogonalLoop=1;jettySize=auto;html=1;exitX=0.5;exitY=1;exitDx=0;exitDy=0;entryX=0.5;entryY=0;entryDx=0;entryDy=0;labelBackgroundColor=default;fontSize=16;fontColor=default;strokeColor=#33001A;" edge="1" parent="1" source="4h6Gc5Q3ZyhKogQl8zRI-26" target="4h6Gc5Q3ZyhKogQl8zRI-29">
          <mxGeometry relative="1" as="geometry" />
        </mxCell>
        <mxCell id="4h6Gc5Q3ZyhKogQl8zRI-26" value="请求广告配置" style="rounded=1;whiteSpace=wrap;html=1;fontSize=16;fontColor=default;strokeColor=#000000;fillColor=default;" vertex="1" parent="1">
          <mxGeometry x="285" y="670" width="120" height="60" as="geometry" />
        </mxCell>
        <mxCell id="4h6Gc5Q3ZyhKogQl8zRI-28" value="否" style="text;html=1;align=center;verticalAlign=middle;resizable=0;points=[];autosize=1;strokeColor=none;fillColor=none;fontSize=16;fontColor=default;" vertex="1" parent="1">
          <mxGeometry x="310" y="610" width="30" height="20" as="geometry" />
        </mxCell>
        <mxCell id="4h6Gc5Q3ZyhKogQl8zRI-33" style="edgeStyle=orthogonalEdgeStyle;rounded=0;orthogonalLoop=1;jettySize=auto;html=1;entryX=0;entryY=0.5;entryDx=0;entryDy=0;labelBackgroundColor=default;fontSize=16;fontColor=default;strokeColor=#33001A;" edge="1" parent="1" source="4h6Gc5Q3ZyhKogQl8zRI-29" target="4h6Gc5Q3ZyhKogQl8zRI-32">
          <mxGeometry relative="1" as="geometry" />
        </mxCell>
        <mxCell id="4h6Gc5Q3ZyhKogQl8zRI-36" style="edgeStyle=orthogonalEdgeStyle;rounded=0;orthogonalLoop=1;jettySize=auto;html=1;labelBackgroundColor=default;fontSize=16;fontColor=default;strokeColor=#33001A;" edge="1" parent="1" source="4h6Gc5Q3ZyhKogQl8zRI-29" target="4h6Gc5Q3ZyhKogQl8zRI-35">
          <mxGeometry relative="1" as="geometry" />
        </mxCell>
        <mxCell id="4h6Gc5Q3ZyhKogQl8zRI-29" value="" style="rhombus;whiteSpace=wrap;html=1;fontSize=16;fontColor=default;strokeColor=#000000;fillColor=default;" vertex="1" parent="1">
          <mxGeometry x="315" y="790" width="60" height="60" as="geometry" />
        </mxCell>
        <mxCell id="4h6Gc5Q3ZyhKogQl8zRI-31" value="展示广告？" style="text;html=1;align=center;verticalAlign=middle;resizable=0;points=[];autosize=1;strokeColor=none;fillColor=none;fontSize=16;fontColor=default;" vertex="1" parent="1">
          <mxGeometry x="220" y="810" width="100" height="20" as="geometry" />
        </mxCell>
        <mxCell id="4h6Gc5Q3ZyhKogQl8zRI-32" value="首页" style="rounded=1;whiteSpace=wrap;html=1;fontSize=16;fontColor=default;strokeColor=#000000;fillColor=default;" vertex="1" parent="1">
          <mxGeometry x="690" y="1290" width="120" height="60" as="geometry" />
        </mxCell>
        <mxCell id="4h6Gc5Q3ZyhKogQl8zRI-34" value="否" style="text;html=1;align=center;verticalAlign=middle;resizable=0;points=[];autosize=1;strokeColor=none;fillColor=none;fontSize=16;fontColor=default;" vertex="1" parent="1">
          <mxGeometry x="375" y="800" width="30" height="20" as="geometry" />
        </mxCell>
        <mxCell id="4h6Gc5Q3ZyhKogQl8zRI-47" style="edgeStyle=orthogonalEdgeStyle;rounded=0;orthogonalLoop=1;jettySize=auto;html=1;labelBackgroundColor=default;fontSize=16;fontColor=default;strokeColor=#33001A;" edge="1" parent="1" source="4h6Gc5Q3ZyhKogQl8zRI-35">
          <mxGeometry relative="1" as="geometry">
            <mxPoint x="345" y="1110" as="targetPoint" />
          </mxGeometry>
        </mxCell>
        <mxCell id="4h6Gc5Q3ZyhKogQl8zRI-35" value="广告页" style="rounded=1;whiteSpace=wrap;html=1;fontSize=16;fontColor=default;strokeColor=#000000;fillColor=default;" vertex="1" parent="1">
          <mxGeometry x="285" y="960" width="120" height="60" as="geometry" />
        </mxCell>
        <mxCell id="4h6Gc5Q3ZyhKogQl8zRI-37" value="是" style="text;html=1;align=center;verticalAlign=middle;resizable=0;points=[];autosize=1;strokeColor=none;fillColor=none;fontSize=16;fontColor=default;" vertex="1" parent="1">
          <mxGeometry x="305" y="850" width="30" height="20" as="geometry" />
        </mxCell>
        <mxCell id="4h6Gc5Q3ZyhKogQl8zRI-38" value="" style="rhombus;whiteSpace=wrap;html=1;fontSize=16;fontColor=default;strokeColor=#000000;fillColor=default;" vertex="1" parent="1">
          <mxGeometry x="260" y="1210" width="60" height="60" as="geometry" />
        </mxCell>
        <mxCell id="4h6Gc5Q3ZyhKogQl8zRI-40" value="展示完成？" style="text;html=1;align=center;verticalAlign=middle;resizable=0;points=[];autosize=1;strokeColor=none;fillColor=none;fontSize=16;fontColor=default;" vertex="1" parent="1">
          <mxGeometry x="130" y="1260" width="100" height="20" as="geometry" />
        </mxCell>
        <mxCell id="4h6Gc5Q3ZyhKogQl8zRI-42" value="" style="shape=link;html=1;rounded=0;labelBackgroundColor=default;fontSize=16;fontColor=default;strokeColor=#33001A;" edge="1" parent="1">
          <mxGeometry width="100" relative="1" as="geometry">
            <mxPoint x="247.5" y="1110.5" as="sourcePoint" />
            <mxPoint x="460" y="1110" as="targetPoint" />
            <Array as="points">
              <mxPoint x="350" y="1110.5" />
            </Array>
          </mxGeometry>
        </mxCell>
      </root>
    </mxGraphModel>
  </diagram>
</mxfile>
